<?xml version="1.0" encoding="UTF-8" standalone="no"?>
<!DOCTYPE svg PUBLIC "-//W3C//DTD SVG 1.1//EN" "http://www.w3.org/Graphics/SVG/1.1/DTD/svg11.dtd">
<svg width="100%" height="100%" viewBox="0 0 2524 2393" version="1.1" xmlns="http://www.w3.org/2000/svg" xmlns:xlink="http://www.w3.org/1999/xlink" xml:space="preserve" xmlns:serif="http://www.serif.com/" style="fill-rule:evenodd;clip-rule:evenodd;stroke-linejoin:round;stroke-miterlimit:1.41421;">
    <g transform="matrix(1,0,0,1,-9.10242,-48.721)">
        <g id="_2" serif:id="2" transform="matrix(1.01752,0,0,1.01752,-36.8209,-35.6069)">
            <g>
                <g transform="matrix(1,0,0,1,-393.3,16.1188)">
                    <circle cx="1060.62" cy="1370.1" r="622.187" style="fill:rgb(36,202,140);"/>
                </g>
                <g transform="matrix(1,0,0,1,741.466,441.656)">
                    <circle cx="1060.62" cy="1370.1" r="622.187" style="fill:rgb(36,202,140);"/>
                </g>
                <path d="M2240.52,1373.33C2101.9,1208.91 909.102,712.453 599.621,770.48C290.139,828.508 805.942,1853.67 863.97,1866.56C921.997,1879.46 1305.63,2011.63 1305.63,2011.63C1305.63,2011.63 2308.11,1453.49 2240.52,1373.33Z" style="fill:rgb(36,202,140);"/>
            </g>
            <path d="M1898.8,306.258C1856.89,377.181 1858.66,497.484 1934.26,831.732C2029.97,1254.89 2059.99,1366.88 2027.75,1457.14C1995.51,1547.41 2278.95,1972.3 2385.33,1940.06C2450.41,1920.34 2451.8,1724.99 2289.52,1270.04C2108.99,763.904 1988.1,532.901 1963.27,344.943C1944.95,206.183 1940.71,235.335 1898.8,306.258Z" style="fill:rgb(36,202,140);"/>
            <path d="M1931.04,83.818C1937.48,103.161 2026.7,335.621 2161.21,433.919C2245.03,495.171 2453.29,638.951 2491.97,716.321C2571.59,875.56 2483.47,1081.95 2483.47,1081.95C2483.47,1081.95 2509.15,837.047 2331.43,778.217C2250.92,751.568 2068.05,734.746 1891.26,608.663C1831.83,346.559 1924.59,64.475 1931.04,83.818Z" style="fill:rgb(151,70,150);"/>
            <g transform="matrix(1.04319,0,0,1.04319,-63.372,-35.0517)">
                <path d="M933.319,804.164C775.092,955.162 640.562,1397.72 701.943,1629.83C1083.12,1744.34 1517.43,1956.33 1581.9,1984.7C1757.79,1831.51 1954.31,1324.13 1973.39,1202.4C1986.28,1202.4 1400.12,920.22 933.319,804.164Z" style="fill:rgb(89,195,214);"/>
            </g>
            <path d="M943.445,811.658C802.23,944.023 638.09,1400.19 699.47,1632.3C1080.65,1746.81 1514.95,1958.8 1579.43,1987.17C1755.32,1833.98 1948.23,1325.4 1967.31,1203.67C1980.21,1203.67 1411.09,924.333 943.445,811.658Z" style="fill:rgb(230,197,148);"/>
            <path d="M674.718,764.01C478.3,1114.71 436.909,1725.13 453.414,1970.66C404.915,1959.95 277.132,1881.07 244.121,1841.86C211.109,1802.66 270.138,956.326 465.076,797.298C577.323,762.185 641.562,764.287 674.718,764.01Z" style="fill:rgb(196,80,165);"/>
            <path d="M1611.46,2403.44C1642.41,2382.81 2186.25,1715.89 2320.91,1361.8C2351.03,1436.19 2391.72,1595.97 2398.43,1630.3C2375.88,1831.44 1947.55,2385.58 1811.38,2433.03C1714.59,2434.64 1661.44,2419.15 1611.46,2403.44Z" style="fill:rgb(196,80,165);"/>
            <g transform="matrix(0.923119,0.384515,-0.384515,0.923119,2188.33,576.147)">
                <circle cx="397.74" cy="1084.95" r="96.283" style="fill:rgb(16,219,255);"/>
                <g transform="matrix(1,0,0,1,0,336.991)">
                    <circle cx="397.74" cy="1084.95" r="96.283" style="fill:rgb(16,219,255);"/>
                </g>
                <g transform="matrix(6.12323e-17,1,-1,6.12323e-17,1651.18,855.706)">
                    <circle cx="397.74" cy="1084.95" r="96.283" style="fill:rgb(16,219,255);"/>
                </g>
                <g transform="matrix(6.12323e-17,1,-1,6.12323e-17,1314.19,855.706)">
                    <circle cx="397.74" cy="1084.95" r="96.283" style="fill:rgb(16,219,255);"/>
                </g>
            </g>
            <g transform="matrix(0.932813,0,0,1,43.8929,3.66793)">
                <g transform="matrix(0.745815,0.19984,-0.276234,1.03092,1005.9,138.887)">
                    <path d="M-292.289,929.063C-292.128,913.169 -504.369,917.715 -510.073,929.063C-546.37,1001.27 -546.37,1290.13 -510.073,1362.34C-503.374,1375.66 -292.061,1375.57 -292.289,1362.34C-293.773,1276.5 -293.244,1023.07 -292.289,929.063Z" style="fill:rgb(16,219,255);"/>
                </g>
                <g transform="matrix(-0.19984,0.745815,-1.03092,-0.276234,1491.17,1855.53)">
                    <path d="M-292.289,929.063C-290.765,904.326 -505.695,915.826 -510.073,929.063C-531.498,993.838 -528.396,1263.87 -510.073,1362.34C-440.133,1380.23 -296.294,1370.3 -292.289,1362.34C-288.285,1354.37 -307.313,1172.89 -292.289,929.063Z" style="fill:rgb(16,219,255);"/>
                </g>
            </g>
            <g>
                <g transform="matrix(1.11538,0,0,1.11538,-154.289,-122.954)">
                    <path d="M1459.44,1449.59L1075.45,1398.01L1063.99,1552.75L1316.16,1661.64L1459.44,1449.59Z" style="fill:rgb(113,80,112);"/>
                </g>
                <path d="M1350.55,1251.87L1187.21,1317.77L1264.58,1366.49" style="fill:rgb(196,80,165);"/>
                <g transform="matrix(-1.18334,1.44918e-16,-1.44918e-16,-1.18334,2390.18,2349.65)">
                    <path d="M1178.61,1125.78C1209.86,1111.15 1124.28,999.352 1058.37,993.621C1019.97,1050.25 1043.93,1188.82 1178.61,1125.78Z" style="fill:rgb(4,53,113);"/>
                </g>
                <g transform="matrix(-1.18334,1.44918e-16,-1.44918e-16,-1.18334,3510.52,2670.11)">
                    <path d="M1482.36,1217.48C1482.36,1217.48 1554.57,1101.48 1671.49,1157.3C1669.2,1238.8 1581.28,1318.69 1482.36,1217.48Z" style="fill:rgb(4,53,113);"/>
                </g>
            </g>
        </g>
    </g>
</svg>
